<?xml version="1.0" encoding="utf-8"?>
<svg viewBox="0 0 1920 1080" width="1920" height="1080" xmlns="http://www.w3.org/2000/svg">
  <defs>
    <radialGradient gradientUnits="userSpaceOnUse" cx="1658.57" cy="696.642" r="1078.843" id="gradient-0" gradientTransform="matrix(1, 0, 0, 1, 5.813354, -65.714509)">
      <stop offset="0" style="stop-color: rgba(248, 211, 0, 0.37);"/>
      <stop offset="1" style="stop-color: rgba(102, 240, 255, 1)"/>
    </radialGradient>
    <radialGradient gradientUnits="userSpaceOnUse" cx="-500.627" cy="1736.086" r="1041.613" id="gradient-2" gradientTransform="matrix(0.172776, 0.177605, -0.941634, 0.916036, 3155.07839, -643.385519)">
      <stop offset="0" style="stop-color: rgba(101, 201, 39, 1)"/>
      <stop offset="1" style="stop-color: rgba(58, 116, 22, 1)"/>
    </radialGradient>
    <linearGradient gradientUnits="userSpaceOnUse" x1="1134.932" y1="761.484" x2="1134.932" y2="1269.856" id="gradient-13" gradientTransform="matrix(0.715799, 0.698307, -1.459434, 1.495996, 1960.190858, -1414.868006)">
      <stop offset="0" style="stop-color: rgb(30, 34, 13);"/>
      <stop offset="1" style="stop-color: #758d29"/>
    </linearGradient>
    <linearGradient gradientUnits="userSpaceOnUse" x1="1728.548" y1="60.749" x2="1728.548" y2="424.567" id="gradient-4" gradientTransform="matrix(1.308159, 0.134502, -0.052227, 0.458823, -715.577317, -77.540632)">
      <stop offset="0" style="stop-color: rgba(255, 255, 255, 1)"/>
      <stop offset="1" style="stop-color: rgba(204, 204, 204, 1)"/>
    </linearGradient>
    <radialGradient gradientUnits="userSpaceOnUse" cx="1728.548" cy="242.658" r="382.003" id="gradient-5" gradientTransform="matrix(1.31516, 0, 0, 1, -461.941395, -5.528376)">
      <stop offset="0" style="stop-color: rgba(243, 255, 248, 1)"/>
      <stop offset="1" style="stop-color: rgba(141, 255, 188, 1)"/>
    </radialGradient>
    <linearGradient gradientUnits="userSpaceOnUse" x1="1728.548" y1="60.749" x2="1728.548" y2="424.567" id="gradient-3" gradientTransform="matrix(1.314908, 0.019629, -0.009715, 0.376256, -1137.936699, 34.241199)">
      <stop offset="0" style="stop-color: rgba(255, 255, 255, 1)"/>
      <stop offset="1" style="stop-color: rgba(204, 204, 204, 1)"/>
    </linearGradient>
    <radialGradient gradientUnits="userSpaceOnUse" cx="1728.548" cy="242.658" r="382.003" id="gradient-6" gradientTransform="matrix(1.31516, 0, 0, 1, -1100.092216, -140.927952)">
      <stop offset="0" style="stop-color: rgba(243, 255, 248, 1)"/>
      <stop offset="1" style="stop-color: rgba(141, 255, 188, 1)"/>
    </radialGradient>
    <radialGradient gradientUnits="userSpaceOnUse" cx="1576.527" cy="681.73" r="28.521" id="gradient-12" gradientTransform="matrix(1.218541, 0.010661, -0.018426, 2.363319, -340.595306, -985.962759)">
      <stop offset="0" style="stop-color: rgb(255, 255, 255);"/>
      <stop offset="1" style="stop-color: rgb(157, 155, 155);"/>
    </radialGradient>
    <linearGradient gradientUnits="userSpaceOnUse" x1="1568.641" y1="566.441" x2="1568.641" y2="672.403" id="gradient-8" gradientTransform="matrix(0.513716, 0.551189, -0.213964, 0.206649, 928.209657, -372.838772)">
      <stop offset="0" style="stop-color: rgb(244, 241, 246);"/>
      <stop offset="1" style="stop-color: rgb(30, 112, 188);"/>
    </linearGradient>
    <radialGradient gradientUnits="userSpaceOnUse" cx="1568.641" cy="619.422" r="55.108" id="gradient-7" gradientTransform="matrix(0.578929, 0.51714, -0.452071, 0.585372, 935.77006, -563.192698)">
      <stop offset="0" style="stop-color: rgb(46, 116, 209);"/>
      <stop offset="1" style="stop-color: rgb(250, 250, 250);"/>
    </radialGradient>
    <radialGradient gradientUnits="userSpaceOnUse" cx="1557.727" cy="748.862" r="76.806" id="gradient-9" gradientTransform="matrix(0.535232, -0.026513, 0.051037, 0.977968, 692.2039, 56.544588)">
      <stop offset="0" style="stop-color: rgba(202, 202, 198, 1)"/>
      <stop offset="1" style="stop-color: rgba(153, 153, 145, 1)"/>
    </radialGradient>
    <linearGradient gradientUnits="userSpaceOnUse" x1="1564.524" y1="690.393" x2="1564.524" y2="732.758" id="gradient-10" gradientTransform="matrix(0.979172, 0.20303, -0.95251, 4.59374, 720.640503, -2834.438043)">
      <stop offset="0" style="stop-color: rgb(12, 186, 255);"/>
      <stop offset="1" style="stop-color: rgb(50, 43, 79);"/>
    </linearGradient>
    <linearGradient gradientUnits="userSpaceOnUse" x1="1565.439" y1="646.471" x2="1565.439" y2="667.022" id="gradient-11" gradientTransform="matrix(0.998541, -0.053997, 0.032081, 0.593248, -18.824009, 352.80933)">
      <stop offset="0" style="stop-color: rgba(138, 136, 136, 1)"/>
      <stop offset="1" style=""/>
    </linearGradient>
    <linearGradient gradientUnits="userSpaceOnUse" x1="1552.111" y1="656.424" x2="1552.111" y2="696.841" id="gradient-1" gradientTransform="matrix(0.051842, 0.998655, -0.330031, 0.017134, 1698.398245, -884.743264)">
      <stop offset="0" style="stop-color: rgba(173, 173, 173, 0.12);"/>
      <stop offset="1" style="stop-color: rgba(122, 122, 122, 0.58)"/>
    </linearGradient>
  </defs>
  <path d="M 1296.277 817.007 C 1303.876 801.873 1310.259 792.854 1323.559 789.418 C 1326.3 788.71 1342.677 786.859 1343.929 784.766 C 1347.582 778.665 1350.539 768.805 1355.164 763.227 C 1362.163 754.786 1368.427 754.792 1375.058 747.772 C 1378.316 744.322 1378.447 739.574 1382.447 735.513 C 1385.62 732.289 1388.863 734.081 1392.129 730.959 C 1397.069 726.236 1398.648 718.628 1404.376 713.603 C 1413.542 705.561 1422.979 713.125 1433.352 701.417 C 1438.354 695.772 1439.95 688.295 1445.374 682.646 C 1451.314 676.458 1458.982 676.752 1463.266 669.217 C 1471.398 654.916 1471.779 641.148 1483.294 626.928 C 1489.62 619.116 1496.838 611.496 1504.354 608.383 C 1505.246 608.012 1515.012 606.445 1515.251 605.986 C 1525.936 585.544 1548.947 542.949 1569.56 537.026 C 1587.293 531.931 1597.941 542.716 1613.453 542.132 C 1624.399 541.722 1635.535 540.589 1646.109 541.33 C 1652.446 541.772 1663.223 541.183 1667.7 545.459 C 1671.229 548.833 1667.656 558.945 1664.432 565.489 C 1662.548 569.314 1654.993 576.946 1657.869 576.766 C 1680.267 575.361 1704.943 573.293 1717.319 590.034 C 1724.043 599.13 1730.257 610.81 1734.365 622.532 C 1735.287 625.164 1733.167 630.467 1735.042 632.061 C 1742.219 638.166 1748.059 641.626 1751.57 652.565 C 1754.042 660.263 1755.271 668.914 1753.986 679.168 C 1753.756 680.993 1753.222 686.541 1751.377 689.47 C 1750.783 690.415 1747.488 693.265 1747.525 693.908 C 1747.986 701.697 1749.715 708.571 1750.406 716.198 C 1751.006 722.829 1750.623 732.274 1745.939 740.807 C 1740.948 749.893 1732.147 756.941 1724.904 762.637 C 1722.51 764.52 1718.561 765.208 1717.679 768.046 C 1714.177 779.303 1724.397 790.897 1711.555 804.147 C 1685.37 831.163 1645.595 834.704 1621.341 841.777 C 1608.009 845.666 1594.673 849.547 1581.239 853.859 C 1577.667 855.006 1560.618 863.444 1557.941 860.847" style="fill-opacity: 0.73; stroke-width: 50px; stroke: rgba(0, 0, 0, 0.12); fill: rgba(255, 254, 183, 0.17); stroke-opacity: 0.05; visibility: hidden;" transform="matrix(0.999912, 0.013269, -0.013269, 0.999912, 9.402657, -20.178902)"/>
  <path d="M -32.779 -110.679 C -71.821 104.808 -80.713 330.592 -78.045 549.068 C -76.752 655.019 -66.619 760.742 -49.896 865.379 C -38.341 937.682 -22.282 1009.421 -10.478 1081.762 C 2.562 1161.674 18.393 1240.005 33.681 1319.34 C 34.826 1325.282 39.928 1378.498 47.455 1381.837 C 65.679 1389.92 86.738 1374.49 106.629 1373.144 C 196.521 1367.059 289.93 1373.181 379.3 1376.114 C 470.707 1379.113 457.481 1378.414 563.985 1386.669 C 685.701 1396.104 807.854 1403.066 929.412 1414.249 C 1192.563 1438.458 1455.067 1450.963 1719.088 1458.159 C 1778.242 1459.771 1837.613 1461.897 1896.736 1463.044 C 1910.137 1463.304 1949.287 1467.934 1957.4 1452.788 C 1963.481 1441.438 1957.481 1420.061 1959.429 1407.284 C 1968.379 1348.584 1983.026 1290.071 1992.307 1230.961 C 2024.713 1024.58 2022.65 823.464 2027.296 615.238 C 2030.249 482.929 2076.937 357.216 2079.071 225.098 C 2080.507 136.211 2070.14 42.625 2058.395 -45.658 C 2056.829 -57.428 2052.027 -123.143 2040.657 -131.118 C 2028.902 -139.363 1975.711 -134.678 1970.957 -134.678 C 1899.705 -134.678 1828.533 -133.132 1757.285 -132.039 C 1544.671 -128.779 1331.465 -130.219 1118.826 -133.064 C 1012.095 -134.492 905.45 -151.821 798.923 -158.46 C 612.199 -170.097 421.533 -168.714 234.81 -155.334 C 175.134 -151.058 115.946 -140.969 57.152 -130.156 C 31.575 -125.452 -6.179 -125.853 -28.485 -110.328 C -35.053 -105.756 -36.877 -86.929 -40.696 -79.426" style="fill: url(#gradient-0); paint-order: stroke; stroke-width: 0px; stroke-opacity: 0.92; stroke: rgb(39, 148, 149); fill-opacity: 0.4;"/>
  <path d="M -82.75 978.165 C 199.626 909.601 487.513 830.356 780.806 831.53 C 1042.797 832.578 1113.819 820.493 1186.355 816.411 C 1408.189 803.928 1429.31 760.614 1652.831 760.614 C 1739.074 760.614 1838.654 737.283 1926.42 755.412 C 1928.604 755.863 1934.142 788.258 1934.451 790.228 C 1941.793 837.08 1948.045 883.734 1955.898 930.913 C 1962.461 970.334 1968.712 1010.529 1971.387 1050.051 C 1974.397 1094.549 1971.668 1138.086 1975.688 1182.901 C 1976.394 1190.76 1987.824 1239.545 1981.274 1246.941 C 1978.948 1249.566 1951.665 1248.523 1950.866 1248.541 C 1920.22 1249.217 1889.338 1248.062 1858.666 1248.541 C 1724.852 1250.637 1590.507 1245.687 1456.468 1245.687 C 1098.12 1245.687 739.656 1253.431 380.338 1242.212 C 278.888 1239.045 177.272 1235.814 75.935 1234.114 C 20.651 1233.186 -38.872 1236.417 -94.356 1225.615 C -103.533 1223.829 -98.794 1178.678 -98.064 1172.991 C -91.822 1124.355 -77.181 1078.891 -69.323 1030.863 C -68.459 1025.58 -69.879 978.04 -78.935 978.04" style="fill-rule: nonzero; fill: url(#gradient-2); stroke-width: 0px; stroke: rgba(0, 0, 0, 0.07); stroke-opacity: 0.43;"/>
  <path d="M 693.368 1261.732 C 756.324 1217.363 849.015 1205.378 928.398 1196.804 C 956.342 1193.786 1020.236 1186.436 1024.19 1152.368 C 1031.232 1091.672 865.838 1112.403 900.681 1039.669 C 921.825 995.531 992.964 989.223 1040.328 986.23 C 1088.888 983.159 1134.132 970.173 1182.057 964.503 C 1233.966 958.363 1381.936 919.725 1426.14 891.846 C 1467.271 865.904 1372.408 857.771 1398.216 834.156 C 1437.083 798.596 1478.81 809.488 1522.894 791.282 C 1550.837 779.738 1543.211 764.271 1543.211 764.271 L 1575.795 761.484 C 1575.795 761.484 1583.373 777.098 1548.688 795.994 C 1517.788 812.828 1502.859 811.821 1443.076 828.927 C 1409.245 838.607 1489.773 859.107 1480.753 887.491 C 1475.776 903.153 1367.692 942.676 1352.333 950.827 C 1281.579 988.379 1158.871 983.691 1116.449 1054.224 C 1076.234 1121.087 1186.609 1151.151 1239.35 1166.894 C 1275.051 1177.552 1273.288 1207.726 1247.753 1223.886 C 1235.045 1231.929 1219.219 1236.186 1205.621 1243.095 C 1195.709 1248.13 1169.239 1269.856 1160.229 1269.856" style="mix-blend-mode: screen; stroke-width: 10px; stroke: rgba(0, 0, 0, 0.59); stroke-opacity: 0.88; fill: url(#gradient-13);"/>
  <path d="M 1588.162 115.464 C 1499.439 101.518 1458.048 112.139 1446.767 150.282 C 1445.859 153.353 1454.692 170.155 1452.009 171.73 C 1435.385 181.5 1441.051 81.277 1341.312 178.862 C 1266.151 252.399 1039.946 76.555 1142.42 244 C 1160.367 273.326 1282.073 272.715 1333.702 304.523 C 1384.752 335.969 1582.876 382.461 1620.159 349.56 C 1625.666 344.705 1742.003 387.167 1759.801 390.795 C 1824.638 404.015 1891.226 412.017 1957.174 416.951 C 2050.129 423.905 2148.724 414.706 2156.173 370.618 C 2157.924 360.247 2138.275 344.778 2141.709 335.905 C 2144.641 328.333 2176.871 334.113 2193.006 331.859 C 2231.336 326.503 2307.014 315.841 2313.074 294.868 C 2321.916 264.259 2243.898 227.455 2225.249 199.02 C 2196.478 155.158 2168.868 82.584 2034.819 65.498 C 2022.411 63.918 2012.922 74.991 2011.711 74.785 C 1988.653 70.844 1978.882 58.717 1948.015 56.039 C 1893.487 51.308 1885.077 68.54 1843.91 70.991 C 1765.794 75.64 1683.381 69.885 1609.327 80.659 C 1583.149 84.465 1574.16 119.411 1573.89 118.942" style="stroke: url(#gradient-5); fill: url(#gradient-4); paint-order: stroke; stroke-opacity: 0; stroke-width: 0px; fill-opacity: 0.49;" transform="matrix(0.994858, -0.101276, 0.101276, 0.994858, -14.702095, 184.668091)"/>
  <path d="M 950.01 -19.936 C 861.287 -33.882 819.896 -23.261 808.615 14.882 C 807.707 17.953 816.54 34.755 813.857 36.33 C 797.233 46.1 802.899 -54.123 703.16 43.462 C 627.999 116.999 729.475 108.06 714.486 116.52 C 684.546 133.422 643.921 137.315 695.55 169.123 C 746.6 200.569 1002.321 256.647 1039.604 223.746 C 1045.111 218.891 1053.864 236.274 1065.973 240.593 C 1081.909 246.279 1103.851 251.767 1121.649 255.395 C 1186.486 268.615 1253.074 276.617 1319.022 281.551 C 1411.977 288.505 1510.572 279.306 1518.021 235.219 C 1519.772 224.848 1500.123 209.378 1503.557 200.505 C 1506.489 192.933 1538.719 198.713 1554.854 196.459 C 1593.184 191.103 1668.862 180.441 1674.922 159.468 C 1683.764 128.859 2043.799 172.066 2025.897 143.155 C 1957.347 32.448 1530.716 -52.816 1396.667 -69.902 C 1384.259 -71.482 1374.77 -60.409 1373.559 -60.615 C 1350.501 -64.556 1340.73 -76.683 1309.863 -79.361 C 1255.335 -84.092 1246.925 -66.86 1205.758 -64.409 C 1127.642 -59.76 1045.229 -65.515 971.175 -54.741 C 944.997 -50.935 936.008 -15.989 935.738 -16.458" style="paint-order: stroke; stroke-opacity: 0; stroke-width: 0px; fill: url(#gradient-3); stroke: url(#gradient-6); fill-opacity: 0.69;" transform="matrix(0.994858, -0.101276, 0.101276, 0.994858, -4.270465, 119.342407)"/>
  <path d="M 611.383 845.644 C 500.574 851.332 445.705 861.909 337.537 884.063 C 278.025 896.251 180.803 919.41 121.943 933.982 C 60.864 949.102 -19.289 955.092 -74.326 983.811 C -89.258 991.603 -63.266 1006.917 -74.107 1020.638 C -79.558 1027.536 -111.691 1066.447 -107.579 1074.19 C -100.993 1086.593 -51.814 1355.717 -40.188 1353.701 C -4.823 1347.568 82.883 1362.812 116.547 1351.062 C 168.363 1332.977 388.909 1281.113 442.783 1269.622 C 548.522 1247.068 963.119 1213.274 828.371 1110.739 C 777.318 1071.891 779.016 973.194 853.958 965.134 C 1277.381 919.591 1042.953 906.869 1169.29 897.245 C 1365.624 882.289 1264.009 840.418 1391.056 802.455 C 1429.683 790.913 1143.783 827.959 1103.76 832.741 C 981.408 847.359 858.682 829.321 736.508 842.896 C 706.688 846.209 696.104 833.958 666.748 838.844" style="stroke-width: 0px; stroke: rgb(135, 255, 83); fill: rgba(177, 178, 174, 0.05);"/>
  <path d="M 1536.962 763.582 C 1536.962 756.398 1533.493 649.882 1534.793 648.057 C 1547.722 629.907 1563.663 635.989 1577.881 635.989 C 1578.896 635.989 1591.907 634.683 1592.296 638.784 C 1592.556 641.512 1596.859 671.238 1597.269 695.7 C 1597.817 728.338 1594.316 757.68 1592.829 759.662 C 1577.344 780.312 1554.351 754.349 1537.647 770.608" style="stroke: rgb(138, 136, 136); fill-opacity: 0.81; fill: url(#gradient-12);"/>
  <path d="M 1539.292 653.487 C 1505.621 641.001 1530.667 605.237 1540.831 602.827 C 1560.159 598.244 1564.572 568.051 1565.357 571.089 C 1568.568 583.517 1572.325 596.163 1583.138 599.853 C 1601.437 606.098 1621.769 638.353 1592.727 652.51" style="fill: url(#gradient-8); stroke: url(#gradient-7); stroke-width: 0px;"/>
  <path d="M 1496.863 773.452 C 1499.205 769.772 1488.626 719.154 1492.906 717.462 C 1514.696 708.851 1543.326 689.359 1569.657 695.338 C 1576.136 696.81 1593.761 700.887 1599.445 703.657 C 1610.619 709.099 1638.334 712.691 1644.059 723.299 C 1647.872 730.365 1651.692 739.654 1651.321 752.51 C 1651.249 754.993 1652.346 759.899 1650.987 760.938 C 1646.385 764.457 1632.24 770.424 1631.626 770.193 C 1629.095 769.242 1588.04 762.063 1496.901 772.873" style="stroke: rgb(0, 0, 0); fill: url(#gradient-9); stroke-opacity: 0.24;"/>
  <path d="M 1538.164 694.505 C 1523.822 699.982 1504.914 706.371 1492.033 712.32 C 1489.515 713.483 1472.761 718.209 1474.07 721.058 C 1475.851 724.934 1474.683 731.133 1478.585 729.41 C 1489.121 724.757 1491.659 721.785 1494.196 720.461 C 1516.095 709.027 1538.341 703.769 1563.448 703.769 C 1587.474 703.769 1599.167 703.158 1620.184 714.061 C 1625.671 716.907 1645.108 732.777 1646.371 729.968 C 1647.742 726.919 1664.829 722.246 1662.087 720.334 C 1639.908 704.868 1600.268 696.343 1571.555 690.594 C 1567.38 689.758 1541.782 691.639 1538.356 694.318" style="stroke: rgb(0, 0, 0); fill: url(#gradient-10); stroke-opacity: 0.08;"/>
  <path d="M 1541.899 768.038 C 1543.382 755.811 1535.118 721.458 1563.08 722.141 C 1579.219 722.534 1577.883 744.959 1577.482 754.784 C 1577.341 758.234 1577.554 761.687 1577.413 765.135 C 1577.397 765.537 1577.361 768.211 1577.202 768.211" style="stroke-width: 2px; stroke: rgb(225, 223, 205);" transform="matrix(0.999993, -0.003734, 0.003734, 0.999993, -2.771595, 5.829344)"/>
  <path d="M 1506.004 743.883 C 1506.004 740.524 1505.728 737.511 1505.379 734.227 C 1505.058 731.198 1504.152 727.483 1505.439 724.561 C 1507.281 720.382 1512.554 723.678 1513.379 726.549 C 1514.372 730.002 1513.398 731.208 1513.689 738.894 C 1513.706 739.364 1514.284 742.353 1513.796 742.82 C 1513.315 743.282 1505.876 744.015 1505.297 743.245" style="stroke-opacity: 0.53; stroke-width: 5px; stroke: rgba(0, 0, 0, 0.16); fill: rgb(216, 192, 96);"/>
  <path d="M 1520.5 741.516 C 1520.5 738.157 1520.224 735.144 1519.875 731.86 C 1519.554 728.831 1518.648 725.116 1519.935 722.194 C 1521.777 718.015 1527.05 721.311 1527.875 724.182 C 1528.868 727.635 1527.894 728.841 1528.185 736.527 C 1528.202 736.997 1528.78 739.986 1528.292 740.453 C 1527.811 740.915 1520.372 741.648 1519.793 740.878" style="stroke-opacity: 0.45; stroke-width: 5px; stroke: rgba(0, 0, 0, 0.19); fill: rgb(216, 208, 125);"/>
  <path d="M 1608.193 743.273 C 1608.193 739.914 1607.917 736.901 1607.568 733.617 C 1607.247 730.588 1606.341 726.873 1607.628 723.951 C 1609.47 719.772 1614.743 723.068 1615.568 725.939 C 1616.561 729.392 1615.587 730.598 1615.878 738.284 C 1615.895 738.754 1616.473 741.743 1615.985 742.21 C 1615.504 742.672 1608.065 743.405 1607.486 742.635" style="fill: rgb(216, 201, 117); stroke: rgba(69, 67, 63, 0.4); stroke-width: 5px;"/>
  <path d="M 1570.65 674.152 C 1570.65 671.388 1570.449 668.91 1570.195 666.208 C 1569.961 663.717 1569.3 660.66 1570.238 658.257 C 1571.581 654.819 1574.933 657.843 1576.024 659.892 C 1577.537 662.733 1576.838 663.725 1576.25 670.048 C 1576.214 670.432 1576.684 672.893 1576.328 673.277 C 1575.978 673.657 1570.557 674.26 1570.135 673.627" style="stroke: rgba(0, 0, 0, 0.31); stroke-width: 2px; fill: rgba(151, 151, 0, 0.13);"/>
  <path d="M 1540.794 674.5 C 1540.794 671.736 1540.535 669.258 1540.207 666.556 C 1539.905 664.065 1539.053 661.008 1540.263 658.605 C 1541.995 655.167 1546.952 657.878 1547.728 660.24 C 1548.662 663.081 1547.746 664.073 1548.019 670.396 C 1548.035 670.782 1548.579 673.241 1548.12 673.625 C 1547.668 674.005 1540.674 674.608 1540.13 673.975" style="stroke: rgba(0, 0, 0, 0.28); stroke-width: 3px; fill: rgba(233, 233, 15, 0.32);"/>
  <path d="M 1556.269 674.494 C 1556.269 671.73 1556.038 669.252 1555.746 666.55 C 1555.477 664.059 1554.718 661.002 1555.796 658.599 C 1557.34 655.161 1561.757 657.872 1562.448 660.234 C 1563.28 663.075 1562.464 664.067 1562.707 670.39 C 1562.721 670.776 1563.206 673.235 1562.798 673.619 C 1562.394 673.999 1556.162 674.602 1555.678 673.969" style="stroke: rgba(0, 0, 0, 0.28); stroke-width: 3px; fill: rgba(194, 200, 9, 0.19);"/>
  <path d="M 1593.212 740.058 C 1593.212 736.699 1592.936 733.686 1592.587 730.402 C 1592.266 727.373 1591.36 723.658 1592.647 720.736 C 1594.489 716.557 1599.762 719.853 1600.587 722.724 C 1601.58 726.177 1600.606 727.383 1600.897 735.069 C 1600.914 735.539 1601.492 738.528 1601.004 738.995 C 1600.523 739.457 1593.084 740.19 1592.505 739.42" style="fill: rgb(216, 208, 120); stroke: rgba(0, 0, 0, 0.23); stroke-width: 6px;"/>
  <path d="M 1564.2843041497556 550.7214708492904 C 1563.8759848581394 557.0261288136198 1565.105003833438 563.8833240737333 1564.131591796875 570.1222534179688 C 1564.0571404044877 570.5994377543412 1564.1313449620482 575.1852416992188 1564.0042724609375 575.1852416992188" style="fill: rgb(216, 201, 117); stroke: rgba(154, 154, 10, 0.69);"/>
  <path d="M 1558.8633807577517 556.2004613590664 C 1562.4225487894664 556.1278295066755 1565.9923143544622 556.1312866210938 1569.54931640625 556.1312866210938" style="fill: rgb(216, 201, 117); stroke: rgba(154, 154, 10, 0.69);"/>
  <path d="M 1554.1535806984627 560.0615269709206 C 1558.8483479014938 560.0615234375 1563.5524210406734 560.1641235351562 1568.248779296875 560.1641235351562 C 1569.7462145554991 560.1641235351562 1571.292195065032 560.056861693987 1572.7835693359375 560.163330078125 C 1577.478388942396 560.4984906525499 1570.4924122422533 560.0617379366075 1574.5455322265625 560.3033447265625 C 1574.7949129944875 560.31821033307 1575.5437687574922 560.3431396484375 1575.2939453125 560.3431396484375" style="fill: rgb(216, 201, 117); stroke: rgba(154, 154, 10, 0.69);"/>
  <path d="M 1562.0244591964638 567.8425207523705 C 1562.9259600869618 569.0653170246977 1565.8476839834427 571.571533203125 1567.0985107421875 571.571533203125" style="fill: rgb(216, 201, 117); stroke: rgba(154, 154, 10, 0.69);"/>
  <path d="M 1477.259 729.162 C 1487.075 715.838 1544.114 694.617 1569.363 696.529 C 1575.577 697 1597.884 702.804 1603.335 703.69 C 1614.051 705.431 1626.297 712.422 1626.297 712.422 C 1626.297 712.422 1628.096 724.644 1627.102 724.111 C 1592.265 705.419 1595.792 710.56 1571.668 707.82 C 1559.704 706.461 1546.601 708.753 1533.377 711.282 C 1520.867 713.675 1509.289 714.234 1492.752 721.254" style="stroke: rgb(0, 0, 0); stroke-width: 0px; fill-opacity: 0.55; fill: rgba(0, 0, 0, 0.3);"/>
  <path d="M 1534.799 652.523 C 1547.855 652.382 1576.708 652.173 1594.148 651.767 C 1595.048 651.746 1594.285 656.657 1594.285 656.657 C 1594.285 656.657 1591.291 656.575 1581.962 656.395 C 1571.781 656.198 1543.886 657.241 1535.17 658.126" style="stroke-width: 0px; stroke: url(#gradient-11); fill-opacity: 0.37;"/>
  <path d="M 1497.173 770.424 C 1517.963 770.073 1533.623 765.695 1549.759 765.129 C 1563.382 764.65 1616.046 765.653 1640 771.782 C 1654.384 775.462 1648.079 761.199 1648.079 761.199 C 1648.079 761.199 1670.956 754.185 1682.429 762.601 C 1683.631 763.482 1663.075 784.825 1658.318 787.94 C 1650.121 793.307 1639.059 796.805 1631.695 797.016 C 1587.584 798.277 1609.769 788.079 1494.212 810.89 C 1459.13 817.815 1484.523 810.157 1379.49 821.775 C 1366.481 823.214 1251.99 814.337 1256.799 812.986 C 1270.768 809.062 1362.19 795.742 1369.929 794.103 C 1381.302 791.695 1373.832 793.395 1401.216 787.417" style="stroke-width: 0px; stroke: rgba(0, 0, 0, 0.78); fill: rgba(0, 0, 0, 0.23); fill-opacity: 0.66;"/>
  <path d="M 1584.309 673.744 C 1584.309 670.98 1584.05 668.502 1583.722 665.8 C 1583.42 663.309 1582.568 660.252 1583.778 657.849 C 1585.51 654.411 1588.867 657.106 1589.742 659.433 C 1590.892 662.49 1592.293 663.317 1591.534 669.64 C 1591.488 670.024 1592.094 672.485 1591.635 672.869 C 1591.183 673.249 1584.189 673.852 1583.645 673.219" style="stroke: rgba(0, 0, 0, 0.16); stroke-width: 2px; fill: rgba(154, 149, 11, 0.16);"/>
  <path d="M 1545.198 767.802 C 1546.597 756.708 1537.709 724.828 1564.089 725.398 C 1574.685 725.627 1574.54 741.183 1574.162 750.098 C 1574.029 753.228 1574.527 757.465 1574.393 760.594 C 1574.378 760.959 1574.573 767.187 1574.573 767.187" style="fill: rgba(230, 230, 46, 0.72); stroke: rgba(177, 174, 131, 0.8); stroke-width: 4px;" transform="matrix(0.999993, -0.003734, 0.003734, 0.999993, -2.776917, 5.829137)"/>
  <path d="M 1571.96 585.787 C 1570.386 591.31 1571.81 596.85 1567.039 601.813 C 1562.68 606.343 1553.553 609.436 1551.996 615.026 C 1549.968 622.313 1545.161 630.951 1548.211 638.233 C 1549.087 640.325 1557.508 651.972 1554.164 654.093 C 1550.799 656.23 1533.712 649.083 1530.688 648.041 C 1523.53 645.567 1520.376 638.438 1520.35 633.951 C 1520.327 629.719 1523.363 621.358 1525.067 617.255 C 1529.307 607.033 1545.203 604.423 1558.038 600.805 C 1562.975 599.413 1567.728 595.966 1569.586 592.69 C 1570.275 591.483 1570.804 590.368 1571.262 589.099 C 1571.477 588.504 1571.652 586.672 1571.656 587.283" style="stroke-width: 0px; stroke: rgba(43, 37, 37, 0.9); fill: rgba(77, 76, 113, 0.14);" transform="matrix(0.955198, -0.295968, 0.295968, 0.955198, -113.572998, 485.775574)"/>
  <path d="M 1565.737 656.424 C 1568.877 677.024 1567.748 692.209 1567.748 692.209 C 1567.748 692.209 1560.359 692.18 1552.548 693.614 C 1550.354 694.016 1542.511 692.432 1540.666 693.737 C 1540.427 693.907 1536.017 695.702 1535.968 695.543 C 1533.178 686.441 1533.852 672.258 1534.815 662.874 C 1535.049 660.579 1533.782 657.964 1536.338 657.839 C 1539.991 657.66 1552.69 657.024 1557.055 657.024" style="stroke: rgb(0, 0, 0); stroke-width: 0px; fill: url(#gradient-1);"/>
  <path d="M 1701.911 938.876 C 1657.752 940.595 1564.424 939.827 1435.213 974.134 C 1312.123 1006.816 1560.947 1000.625 1538.184 1010.591 C 1514.094 1021.139 1483.023 1016.5 1457.321 1017.133 C 1415.115 1018.173 1365.73 1030.869 1327.48 1048.326 C 1309.924 1056.339 1267.439 1044.362 1250.977 1054.46 C 1249.748 1055.213 1183.504 1077.706 1185.742 1080.739 C 1209.031 1112.303 1255.052 1137.61 1286.186 1136.268 C 1323.004 1134.681 1614.482 1154.642 1651.749 1151.4 C 2082.762 1113.908 1853.894 1100.775 1885.147 1086.306 C 1923.741 1068.438 1678.849 1021.736 1720.917 1013.976 C 1732.643 1011.814 1744.102 1010.984 1756.006 1010.489 C 1791.215 1009.024 1814.044 1008.965 1844.948 992.294 C 1851.46 988.781 1867.956 981.027 1866.614 971.454 C 1864.696 957.77 1829.395 962.778 1823.462 962.778 C 1809.713 962.778 1855.394 915.911 1839.91 910.522 C 1830.582 907.275 1761.503 910.32 1752.423 907.314 C 1740.218 903.274 1704.809 949.568 1693.629 943.978" style="stroke-width: 0px; stroke: rgba(0, 0, 0, 0.63); fill: rgba(5, 86, 9, 0.11);"/>
  <path d="M 1630.144 747.846 C 1630.144 752.316 1632.006 770.202 1632.1 770.201 C 1635.949 770.184 1646.426 774.3 1647.145 773.004 C 1653.177 762.13 1650.811 748.226 1648.813 735.846 C 1648.323 732.807 1638.768 731.973 1657.122 723.969 C 1658.31 723.451 1627.882 712.343 1626.356 711.977" style="stroke-width: 0px; stroke: rgb(37, 153, 155); fill: rgba(0, 0, 0, 0.19);"/>
  <path d="M 1555.29 743.725 C 1555.767 743.421 1552.325 730.019 1559.423 725.223 C 1559.465 725.195 1555.333 726.054 1555.099 726.138 C 1552.472 727.078 1550.6 729.493 1548.969 731.364 C 1546.122 734.628 1545.179 739.811 1544.735 744.109 C 1544.268 748.625 1545.358 767.197 1545.358 769.218 C 1548.242 766.963 1553.109 764.391 1555.906 761.065" style="stroke: rgb(0, 0, 0); fill: rgba(0, 0, 0, 0.23); stroke-width: 0px;"/>
  <path d="M 718.667 867.027 C 618.25 872.329 608.076 900.681 508.813 913.818 C 450.7 921.509 395.122 880.003 187.409 911.705 C 156.992 916.347 -69.932 978.53 -100.768 979.618 C -114.559 980.104 -137.486 1248.303 -136.714 1248.63 C -109.723 1260.045 129.878 1318.86 538.691 1239.378 C 912.408 1166.719 677.153 997.631 713.501 980.239 C 725.146 974.667 730.533 961.54 740.52 955.465 C 753.338 947.668 776.946 948.758 791.405 945.444 C 815.847 939.841 838.949 926.699 863.614 922.907 C 885.336 919.567 909.311 923.086 931.201 923.086 C 938.858 923.086 1152.038 888.29 1143.611 867.276 C 1138.092 853.516 883.097 859.1 829.774 861.293" style="stroke-width: 0px; stroke: rgb(0, 0, 0); fill: rgba(12, 221, 82, 0.11);"/>
  <path d="M 1559.0176642086853 709.5805803051966 C 1557.6861364537476 710.5041652617384 1555.5524872452086 711.3393223299859 1554.98974609375 713.028076171875 C 1554.713224077671 713.8579028440668 1554.9828670636996 714.7954277686756 1555.28076171875 715.5819091796875 C 1556.1930823237185 717.9905566143638 1556.712622780224 718.9412234145484 1559.383544921875 719.0121459960938 C 1560.0831682786068 719.0307235105016 1560.7863404684304 719.0121459960938 1561.4864501953125 719.0121459960938 C 1562.8971636263013 719.0121459960938 1564.1924125102184 719.3030902879344 1565.3529052734375 718.4657592773438 C 1566.0709704598587 717.9476532905832 1566.0043712207382 716.0084338413672 1566.0771484375 715.1893310546875 C 1566.2069031856495 713.7289499007604 1566.2687772342583 711.8584055537012 1565.491455078125 710.55712890625 C 1564.170701451777 708.3461204621419 1560.4384360261683 708.4059864721098 1558.85009765625 709.9338989257812" style="fill-opacity: 0.31; stroke: rgba(0, 0, 0, 0.07); stroke-opacity: 0.43; fill: rgb(216, 203, 18);"/>
  <path d="M 1557.123 718.221 C 1557.08 717.539 1556.987 716.842 1557.401 716.251 C 1558.041 715.337 1559.26 715.219 1559.59 714.215 C 1559.22 713.919 1558.685 713.523 1558.631 712.986 C 1558.456 711.244 1559.998 710.605 1561.429 710.702 C 1561.741 710.723 1562.421 710.752 1562.657 710.976 C 1562.933 711.237 1563.187 711.225 1563.339 711.609 C 1563.536 712.104 1563.821 712.996 1563.48 713.504 C 1563.301 713.771 1562.933 713.886 1562.661 714.016 C 1562.318 714.182 1562.549 715.295 1562.704 715.576 C 1563.03 716.167 1564.334 716.502 1564.913 716.845 C 1564.998 716.895 1565.814 717.538 1565.797 717.538" style="stroke: rgba(0, 0, 0, 0.07); stroke-opacity: 0.43; fill: rgb(216, 206, 60);"/>
</svg>