<?xml version="1.0" encoding="utf-8"?>
<svg viewBox="0 5.74 500 500" width="500" height="500" xmlns="http://www.w3.org/2000/svg">
  <defs>
    <linearGradient gradientUnits="userSpaceOnUse" x1="207.878" y1="327.108" x2="207.878" y2="477.544" id="gradient-3">
      <stop offset="0" style="stop-color: rgba(57, 75, 0, 1)"/>
      <stop offset="1" style="stop-color: rgba(0, 0, 0, 1)"/>
    </linearGradient>
    <filter id="inner-shadow-filter-0" x="-500%" y="-500%" width="1000%" height="1000%">
      <feOffset dx="0" dy="0"/>
      <feGaussianBlur stdDeviation="10"/>
      <feComposite operator="out" in="SourceGraphic"/>
      <feComponentTransfer result="choke">
        <feFuncA type="linear" slope="1"/>
      </feComponentTransfer>
      <feFlood flood-color="rgba(0,0,0,0.7)" result="color"/>
      <feComposite operator="in" in="color" in2="choke" result="shadow"/>
      <feComposite operator="over" in="shadow" in2="SourceGraphic"/>
    </filter>
    <filter id="brightness-filter-0" x="-500%" y="-500%" width="1000%" height="1000%">
      <feComponentTransfer>
        <feFuncR type="linear" slope="1.39"/>
        <feFuncG type="linear" slope="1.39"/>
        <feFuncB type="linear" slope="1.39"/>
      </feComponentTransfer>
    </filter>
    <path id="path-0" d="M 239.111 418.971 C 288.043 379.289 317.177 387.436 332.828 390.72" style="fill: none;"/>
    <radialGradient gradientUnits="userSpaceOnUse" cx="117.404" cy="462.811" r="15.227" id="gradient-2" gradientTransform="matrix(0.862428, -1.809874, 3.843905, 1.433023, -1762.850411, 12.078858)">
      <stop offset="0" style="stop-color: rgba(142, 20, 153, 1)"/>
      <stop offset="1" style="stop-color: rgb(255, 250, 240);"/>
    </radialGradient>
  </defs>
  <g transform="matrix(0.774816, 0.097229, -0.209092, 0.760545, 176.59903, 121.115128)" style="">
    <path style="fill-rule: evenodd; paint-order: stroke; fill: rgb(255, 255, 255); vector-effect: non-scaling-stroke; stroke-miterlimit: 9; stroke-width: 2px; stroke: rgb(201, 201, 201);" d="M 467.137 243.768 C 459.68 244.114 452.202 244.441 448.578 250.564 C 444.425 257.58 446.776 259.377 448.806 264.418 C 451.139 270.212 460.702 281.249 460.857 280.85 C 463.433 274.237 458.319 271.886 466.839 268.881 C 471.193 267.345 471.872 269.374 482.405 266.073" transform="matrix(1.005523, 0.23928, -0.244127, 0.936414, 62.104955, -93.366016)"/>
    <path style="stroke-width: 2px; fill: rgb(221, 221, 221); stroke-linecap: round; stroke-miterlimit: 3; stroke: rgb(135, 105, 105);" d="M 465.571 246.331 L 494.357 290.026" transform="matrix(1.003313, 0.258895, -0.26414, 0.928539, 70.911664, -105.56297)"/>
    <path style="paint-order: stroke; stroke-width: 0px; stroke-opacity: 0.76; fill-rule: evenodd; stroke: rgb(255, 255, 255); fill: rgb(148, 135, 250);" d="M 457.795 248.368 C 481.407 255.651 471.526 263.892 477.247 270.913 C 478.01 271.849 482.319 268.663 487.049 268.661 C 488.02 268.661 473.827 248.769 471.07 245.406 C 470.197 244.341 457.023 247.265 457.795 248.368 Z" transform="matrix(1.001124, 0.275401, -0.28098, 0.921582, 72.07762, -109.843209)"/>
    <path style="fill-rule: nonzero; stroke-opacity: 0.31; stroke-width: 0px; paint-order: fill; filter: url(#inner-shadow-filter-0); stroke: url(#gradient-3); fill: rgba(255, 187, 0, 0.75);" d="M -117.573 477.544 L -129.034 391.887 C -129.034 391.887 -86.347 445.634 -77.203 444.396 C -75.157 444.118 -71.995 447.64 -70.024 448.136 C -64.432 449.542 -56.047 449.305 -50.192 449.104 C -43.428 448.874 -36.914 447.626 -30.616 446.592 C -25.923 445.823 -16.302 447.068 -11.305 447.189 C 3.294 447.547 17.454 447.301 32.24 447.732 C 36.819 447.866 40.386 449.961 46.85 450.002 C 58.3 450.077 69.667 447.923 80.591 447.954 C 97.614 448 119.814 450.288 136.288 447.849 C 144.099 446.695 155.741 442.218 159.146 443.157 C 164.003 444.495 171.706 442.897 175.622 441.834 C 185.031 439.282 223.974 436.119 228.861 436.003 C 247.546 435.558 261.806 431.004 279.3 429.222 C 285.858 428.556 294.087 431.807 300.677 432.475 C 311.463 433.57 328.259 434.767 338.598 433.957 C 341.402 433.739 361.135 425.793 370.942 428.286 C 381.175 430.885 400.222 425.984 410.531 424.904 C 412.927 424.653 422.953 424.553 424.56 423.467 C 428.651 420.699 457.855 415.309 463.823 410.255 C 465.275 409.023 473.185 392.428 478.162 386.547 C 480.393 383.907 476.412 378.746 476.353 377.442 C 476.108 372.068 482.753 348.584 486.402 347.374 C 492.212 345.451 484.664 341.718 485.8 339.652 C 488.975 333.862 502.288 329.657 513.089 328.043 C 513.994 327.906 519.7 326.638 520.98 327.296 C 524.526 329.127 540.711 477.356 540.711 477.356 L -117.573 477.544 Z" transform="matrix(0.974232, -0.124547, 0.12707, 1.010204, -44.62614, 22.121426)"/>
    <path style="fill: rgb(255, 255, 255); stroke-width: 1.21953px; stroke: rgb(139, 153, 255);" d="M 469.371 261.377 C 469.121 261.639 461.854 258.706 461.979 258.456 C 463.217 255.974 464.9 252.852 462.637 251.557 C 461.721 251.032 460.734 251.268 459.853 251.434 C 459.845 251.436 456.85 252.019 456.85 252.578 C 457.975 257.186 460.888 261.259 463.133 265.009"/>
    <path style="fill: rgb(255, 255, 255); stroke-width: 1.21953px; stroke: rgb(139, 153, 255);" d="M 456.783 252.929 C 452.589 255.182 457.135 259.534 457.871 263.975 C 458.122 265.495 458.691 266.244 459.505 267.492"/>
    <path style="fill: rgb(255, 255, 255); stroke-width: 1.21953px; stroke: rgb(139, 153, 255);" d="M 456.127 262.542 C 456.346 261.667 459.824 258.427 459.654 259.359 C 459.467 260.386 461.361 258.358 462.432 258.624"/>
  </g>
  <path d="M 241.67479228602326 408.1554694401267 L 229.53955510474952 402.01821121236475 L 231.63274577459043 400.469221599846 L 240.90455656606503 405.1376608087353 L 239.17273367132915 394.8895278343214 L 241.26592434117006 393.3405382218027 L 243.5879235434047 406.73972624588913 L 247.7185625101214 412.32156803213155 L 245.80543125273994 413.7373112263691 Z M 255.0571895632556 387.75957019816093 Q 254.39688670744704 387.96887413651626 253.7035809461431 388.23138341510037 Q 253.08180187557087 388.44984802870715 252.32707064090192 388.79950609513077 Q 251.57233940623297 389.1491641615543 250.8093880384278 389.6189739213127 Q 249.04506300037835 390.70540899075394 248.6124466199033 391.7116689310003 Q 248.17983023942824 392.7179288712467 248.86986332407338 393.83851369271053 Q 249.43692308903792 394.7059946567428 250.43120072768707 394.9322510981589 Q 251.42547836633622 395.15850753957494 252.67097877818642 395.09853484511353 Q 253.91647919003663 395.03856215065207 255.32611477372373 394.84463556350335 Q 256.73575035741084 394.6507089763547 258.0546585442233 394.7099474331128 Q 259.37356673103574 394.7691858898709 260.52658103473135 395.22652385622985 Q 261.67959533842696 395.6838618225888 262.42835464304187 396.8998155650283 Q 263.2945663875964 398.3065071494191 263.2151254961048 399.5392070905073 Q 263.13568460461323 400.7719070315956 262.4994687249497 401.82133228117937 Q 261.8632528452861 402.8707575307631 260.8573600238914 403.7203454496194 Q 259.8514672024967 404.5699333684757 258.8500935322524 405.1865586781585 Q 257.8964043224959 405.7738208778565 257.0362029494846 406.1391010413878 Q 256.17600157647325 406.50438120491907 255.51569872066472 406.71368514327435 Q 254.74534538888804 406.95787307135555 254.06484009834602 407.08096876398673 L 253.35247874883586 404.8561170143809 Q 254.04766559437033 404.75686355199366 254.77033446565918 404.54203873389736 Q 255.4067950912238 404.3474163505345 256.15970642813755 404.04820318446923 Q 256.91261776505127 403.748990018404 257.6755691328564 403.2791802586456 Q 258.60541611236897 402.7065996139401 259.30688082033384 402.1102379254659 Q 260.0083455282987 401.5138762369918 260.41906194923564 400.89925438448995 Q 260.82977837017256 400.28463253198817 260.8873804886013 399.6572713951997 Q 260.94498260703 399.0299102584112 260.5632621772263 398.4100122720695 Q 259.9668393022769 397.4948468475494 259.0230065639861 397.2704103038886 Q 258.0791738256952 397.04597376022775 256.7832285134867 397.104126556934 Q 255.48728320127816 397.16227935364014 254.07030684009484 397.34428482566693 Q 252.65333047891153 397.52629029769366 251.32708151460287 397.4551307258136 Q 250.00083255029418 397.3839711539335 248.8257959141099 396.8908698422087 Q 247.65075927792563 396.39776853048386 246.8432737533409 395.08644586706873 Q 246.37346399358253 394.3234944992636 246.1806003214996 393.42288825678537 Q 245.98773664941672 392.52228201430717 246.2671984310616 391.5610072811534 Q 246.54666021270646 390.5997325479996 247.33973167318592 389.6181330071619 Q 248.13280313366542 388.63653346632407 249.63486363903186 387.71159550179976 Q 250.49318392781265 387.1830595220716 251.31944185321336 386.7893567906707 Q 252.14569977861404 386.39565405926976 252.7766395244377 386.1386656604266 Q 253.5176297462295 385.8467932718576 254.20177483228196 385.6228077785098 Z M 264.72712852018026 382.17305173023914 L 259.30917726167775 384.732322751544 L 258.3763588520432 382.7575554704076 L 271.3389338256567 376.6344397558837 L 272.2717522352912 378.60920703702016 L 266.8538009767887 381.16847805832504 L 274.0771640462661 396.4602657225097 L 271.95049158965764 397.4648393944238 Z M 278.74783193996893 373.642544012651 L 281.65809852998495 372.93095116906943 L 288.54676908471936 382.94948329649884 Q 289.13311689028535 383.8149844524241 289.6284899872557 384.5441932666865 Q 290.1238630842261 385.27340208094887 290.49441231901585 385.845770200778 Q 290.939310261383 386.4864337793257 291.2760103425877 387.0382535463844 L 291.33040784894314 387.0249527455698 Q 291.3472915590488 386.3866777732161 291.41916992705836 385.61965658692964 Q 291.4838007431121 384.94088206058365 291.55960146287384 384.0720148377679 Q 291.6354021826356 383.2031476149521 291.783420712868 382.15808564802967 L 293.3535623964045 370.0712789939286 L 296.26382898642055 369.35968615034704 L 301.7513584254222 387.6764718032964 L 299.439464405316 388.24175583791725 L 296.4831854485557 378.15528020319647 Q 296.1029183222424 376.8358420983028 295.8496059552163 375.9177348906676 Q 295.59629358819024 374.99962768303243 295.4499847792295 374.4012551131226 L 295.17066796212276 373.2589074796584 L 295.11627045576734 373.27220828047297 Q 295.05283394281054 373.7200919805826 294.980955574801 374.48711316686905 Q 294.90967435833994 375.13868894003735 294.7991287576704 376.16017592976 Q 294.6885831570009 377.1816629194826 294.52487521975985 378.63410903252236 L 293.18375117444043 389.77134793159723 L 290.87185715433424 390.3366319662181 L 284.51573405035896 381.0814563824103 Q 283.67973852043167 379.9022738376185 283.12391466824704 379.04372165787487 Q 282.5680908160624 378.1851694781312 282.20419198167997 377.64000011147976 Q 281.78649279249055 376.9926861325248 281.5440926200851 376.5907580837178 L 281.4896951137296 376.6040588845324 Q 281.62330027342426 377.0325885349686 281.82340943719186 377.733105717182 Q 282.12992500747634 378.86880295023894 282.666218834274 381.533683610107 L 284.61614392345865 391.86622405989806 L 282.3042499033525 392.4315080945189 Z" transform="matrix(0.2942110598087311, 0, 0, 0.22422398626804352, 416.5144348144531, 307.5827941894531)" style="fill: rgb(222, 222, 222); white-space: pre; filter: url(#brightness-filter-0); opacity: 0.36;"/>
  <g transform="matrix(0.997893, -0.064887, 0.073359, 1.128189, 37.934433, -46.04401)" style="">
    <ellipse style="stroke: rgb(233, 233, 233); fill: rgb(200, 160, 60);" cx="117.99" cy="481.387" rx="30.733" ry="7.632"/>
    <ellipse style="fill: rgb(186, 121, 68); stroke: rgb(208, 208, 208);" cx="115.021" cy="478.683" rx="23.436" ry="4.593" transform="matrix(0.999986, 0.005377, 0, 1.000014, 3.138934, 0.695733)"/>
    <ellipse style="fill: rgb(187, 96, 54); stroke: rgb(197, 197, 197);" cx="114.838" cy="476.295" rx="18.445" ry="3.852" transform="matrix(1, 0, 0.108744, 1, -49.017006, 0.704646)"/>
    <path d="M 130.797 474.46 C 130.61 475.821 124.35 476.925 116.814 476.925 C 109.279 476.925 103.321 475.821 103.508 474.46 C 103.604 473.761 105.304 473.129 107.956 472.68 C 107.105 472.08 106.334 471.395 105.652 470.645 C 104.495 469.376 103.475 467.713 102.9 466.186 C 102.349 464.725 102.127 463.206 102.186 461.69 C 102.247 460.137 102.558 458.495 103.303 456.981 C 104.099 455.363 105.602 453.526 106.97 452.317 C 108.194 451.235 109.564 450.499 110.992 449.901 C 112.395 449.314 113.717 448.855 115.452 448.74 C 117.543 448.602 120.59 448.772 122.811 449.511 C 125.001 450.24 127.175 451.655 128.703 453.104 C 130.154 454.481 131.222 456.224 131.87 457.917 C 132.503 459.571 132.718 461.476 132.6 463.134 C 132.487 464.718 132.003 466.261 131.276 467.667 C 130.542 469.084 129.613 470.438 128.204 471.599 C 127.774 471.953 127.282 472.314 126.748 472.665 C 129.331 473.114 130.894 473.752 130.797 474.46 Z" style="fill: rgb(180, 72, 186); stroke: url(#gradient-2);" transform="matrix(0.9998, 0.01771, -0.022637, 0.9998, 10.500065, -1.986442)"/>
    <text style="fill: rgb(132, 47, 130); font-family: Arial, sans-serif; font-size: 14px; white-space: pre;" transform="matrix(0.562741, -0.022734, -0.034316, 0.363172, 67.502831, 286.402039)" x="106.158" y="496.421" dx="-0.403 -0.158 -0.432" dy="-0.622 1.371 -0.764">SSD</text>
  </g>
</svg>