<svg xmlns="http://www.w3.org/2000/svg" version="1.1" xmlns:xlink="http://www.w3.org/1999/xlink" xmlns:svgjs="http://svgjs.dev/svgjs" viewBox="0 0 2400 800" opacity="0.57"><defs><linearGradient x1="50%" y1="0%" x2="50%" y2="100%" id="sssurf-grad"><stop stop-color="hsl(205, 69%, 60%)" stop-opacity="1" offset="0%"></stop><stop stop-color="hsl(205, 69%, 80%)" stop-opacity="1" offset="100%"></stop></linearGradient></defs><g fill="url(#sssurf-grad)" transform="matrix(1,0,0,1,10.71435546875,312.52392959594727)"><path d="M-10,10C18.399122807017548,12.708333333333332,71.60087719298245,30.291666666666664,126.3157894736842,23C181.03070175438597,15.708333333333334,200,-26.666666666666668,252.6315789473684,-25C305.2631578947368,-23.333333333333332,326.31578947368416,29.958333333333332,378.9473684210526,31C431.57894736842104,32.041666666666664,452.6315789473684,-20.208333333333332,505.2631578947368,-20C557.8947368421052,-19.791666666666668,578.9473684210526,29.5,631.578947368421,32C684.2105263157895,34.5,705.2631578947368,-6.333333333333334,757.8947368421052,-8C810.5263157894736,-9.666666666666666,831.578947368421,22.333333333333332,884.2105263157895,24C936.8421052631579,25.666666666666668,957.8947368421052,-5.416666666666666,1010.5263157894736,0C1063.157894736842,5.416666666666666,1084.2105263157896,48.125,1136.842105263158,50C1189.4736842105262,51.875,1210.5263157894738,9.625,1263.157894736842,9C1315.7894736842104,8.375,1336.842105263158,48.666666666666664,1389.4736842105262,47C1442.1052631578946,45.333333333333336,1463.157894736842,1,1515.7894736842104,1C1568.4210526315787,1,1589.473684210526,46.166666666666664,1642.1052631578946,47C1694.7368421052631,47.833333333333336,1715.7894736842104,1.666666666666667,1768.421052631579,5C1821.0526315789475,8.333333333333332,1842.1052631578948,62.375,1894.7368421052631,63C1947.3684210526314,63.625,1968.4210526315787,10.083333333333334,2021.0526315789473,8C2073.684210526316,5.916666666666666,2094.7368421052633,52.583333333333336,2147.3684210526317,53C2200,53.416666666666664,2221.0526315789475,7.708333333333334,2273.684210526316,10C2326.315789473684,12.291666666666666,2321.6008771929824,-17.25,2400,64C2478.3991228070176,145.25,3254.1666666666665,225.83333333333331,2650,400C2045.8333333333335,574.1666666666667,156.25,795.8333333333334,-500,900" transform="matrix(1,0,0,1,0,25)" opacity="0.05"></path><path d="M-10,10C18.399122807017548,12.708333333333332,71.60087719298245,30.291666666666664,126.3157894736842,23C181.03070175438597,15.708333333333334,200,-26.666666666666668,252.6315789473684,-25C305.2631578947368,-23.333333333333332,326.31578947368416,29.958333333333332,378.9473684210526,31C431.57894736842104,32.041666666666664,452.6315789473684,-20.208333333333332,505.2631578947368,-20C557.8947368421052,-19.791666666666668,578.9473684210526,29.5,631.578947368421,32C684.2105263157895,34.5,705.2631578947368,-6.333333333333334,757.8947368421052,-8C810.5263157894736,-9.666666666666666,831.578947368421,22.333333333333332,884.2105263157895,24C936.8421052631579,25.666666666666668,957.8947368421052,-5.416666666666666,1010.5263157894736,0C1063.157894736842,5.416666666666666,1084.2105263157896,48.125,1136.842105263158,50C1189.4736842105262,51.875,1210.5263157894738,9.625,1263.157894736842,9C1315.7894736842104,8.375,1336.842105263158,48.666666666666664,1389.4736842105262,47C1442.1052631578946,45.333333333333336,1463.157894736842,1,1515.7894736842104,1C1568.4210526315787,1,1589.473684210526,46.166666666666664,1642.1052631578946,47C1694.7368421052631,47.833333333333336,1715.7894736842104,1.666666666666667,1768.421052631579,5C1821.0526315789475,8.333333333333332,1842.1052631578948,62.375,1894.7368421052631,63C1947.3684210526314,63.625,1968.4210526315787,10.083333333333334,2021.0526315789473,8C2073.684210526316,5.916666666666666,2094.7368421052633,52.583333333333336,2147.3684210526317,53C2200,53.416666666666664,2221.0526315789475,7.708333333333334,2273.684210526316,10C2326.315789473684,12.291666666666666,2321.6008771929824,-17.25,2400,64C2478.3991228070176,145.25,3254.1666666666665,225.83333333333331,2650,400C2045.8333333333335,574.1666666666667,156.25,795.8333333333334,-500,900" transform="matrix(1,0,0,1,0,50)" opacity="0.53"></path><path d="M-10,10C18.399122807017548,12.708333333333332,71.60087719298245,30.291666666666664,126.3157894736842,23C181.03070175438597,15.708333333333334,200,-26.666666666666668,252.6315789473684,-25C305.2631578947368,-23.333333333333332,326.31578947368416,29.958333333333332,378.9473684210526,31C431.57894736842104,32.041666666666664,452.6315789473684,-20.208333333333332,505.2631578947368,-20C557.8947368421052,-19.791666666666668,578.9473684210526,29.5,631.578947368421,32C684.2105263157895,34.5,705.2631578947368,-6.333333333333334,757.8947368421052,-8C810.5263157894736,-9.666666666666666,831.578947368421,22.333333333333332,884.2105263157895,24C936.8421052631579,25.666666666666668,957.8947368421052,-5.416666666666666,1010.5263157894736,0C1063.157894736842,5.416666666666666,1084.2105263157896,48.125,1136.842105263158,50C1189.4736842105262,51.875,1210.5263157894738,9.625,1263.157894736842,9C1315.7894736842104,8.375,1336.842105263158,48.666666666666664,1389.4736842105262,47C1442.1052631578946,45.333333333333336,1463.157894736842,1,1515.7894736842104,1C1568.4210526315787,1,1589.473684210526,46.166666666666664,1642.1052631578946,47C1694.7368421052631,47.833333333333336,1715.7894736842104,1.666666666666667,1768.421052631579,5C1821.0526315789475,8.333333333333332,1842.1052631578948,62.375,1894.7368421052631,63C1947.3684210526314,63.625,1968.4210526315787,10.083333333333334,2021.0526315789473,8C2073.684210526316,5.916666666666666,2094.7368421052633,52.583333333333336,2147.3684210526317,53C2200,53.416666666666664,2221.0526315789475,7.708333333333334,2273.684210526316,10C2326.315789473684,12.291666666666666,2321.6008771929824,-17.25,2400,64C2478.3991228070176,145.25,3254.1666666666665,225.83333333333331,2650,400C2045.8333333333335,574.1666666666667,156.25,795.8333333333334,-500,900" transform="matrix(1,0,0,1,0,75)" opacity="1.00"></path></g></svg>